# xmcd CD database file
# Copyright (C) 1996 Ti Kan
#
# Track frame offsets:
#	150
#	22937
#	40152
#	56070
#	77832
#	97500
#	115682
#	140060
#	158587
#	176007
# Disc length: 2710 seconds
#
# Revision: 1
# Processed by: cddbd v1.4PL0 Copyright (c) Steve Scherf et al.
# Submitted via: CDCOPY 4.744
#
DISCID=710a940a
DTITLE=Typ1 - Stechender Schmerz
DYEAR=1900
DGENRE=
TTITLE0=Weiß wie die Flügel eines Engels
TTITLE1=Stechender Schmerz
TTITLE2=Komm zurück
TTITLE3=Bilder aus vergangenen Tagen
TTITLE4=Bleib hier
TTITLE5=Neurose
TTITLE6=Traumraum
TTITLE7=Zerstörer des Lebens
TTITLE8=Das wunderbare Land
TTITLE9=Spiegel der Zeit
EXTD=
EXTT0=
EXTT1=
EXTT2=
EXTT3=
EXTT4=
EXTT5=
EXTT6=
EXTT7=
EXTT8=
EXTT9=
PLAYORDER=
